# xmcd
#
# Track frame offsets:
#	150
#	10517
#	32453
#	42811
#	53135
#	68844
#	81625
#	94362
#	106343
#	117787
#
# Disc length: 1752
#
# Revision: 1
# Processed by: cddbd v1.5.1PL0 Copyright (c) Steve Scherf et al.
# Submitted via: EasyCDDAExtractor 4.6.9.1
# Normalized: r0:DSETVAR1,TDELIM( - )
#
DISCID=7706d60a
DTITLE=Various Artist - Country Legacy
DYEAR=1900
DGENRE=Country
TTITLE0=Loretta Lymm - You're Lookin' At Country
TTITLE1=Willie Nelson - City Of New Orleans
TTITLE2=Anne Murray - Some Birds
TTITLE3=Sons Of The Pioneers - Somebody Bigger Than You And I
TTITLE4=Johnny Cash - Bandana
TTITLE5=Freddy Fender - Almost Persuaded
TTITLE6=Charley Pride - Crystal Chandeliers
TTITLE7=Billy Jo Spears - My Own Kind
TTITLE8=Roy Drusky - Blue Eyes Cryin' In The Rain
TTITLE9=George Jones - Will There Be Stars In My Crown
EXTD=
EXTT0=
EXTT1=
EXTT2=
EXTT3=
EXTT4=
EXTT5=
EXTT6=
EXTT7=
EXTT8=
EXTT9=
PLAYORDER=
